<svg version="1.1" xmlns="http://www.w3.org/2000/svg" xmlns:xlink="http://www.w3.org/1999/xlink" width="573.90471" height="461.21274" viewBox="0,0,573.90471,461.21274"><g transform="translate(29.05866,57.34631)"><g data-paper-data="{&quot;isPaintingLayer&quot;:true}" fill="none" fill-rule="nonzero" stroke="none" stroke-width="none" stroke-linecap="butt" stroke-linejoin="miter" stroke-miterlimit="10" stroke-dasharray="" stroke-dashoffset="0" font-family="none" font-weight="none" font-size="none" text-anchor="none" style="mix-blend-mode: normal"><path d="M-7.60967,191.07461c-0.0166,0.09648 -0.0311,0.1935 -0.04335,0.2911c-0.22305,1.77744 0.82508,3.49818 0.99228,5.28174c0.40474,4.31761 0.33333,8.66667 0.5,13c0.05137,1.33555 -0.70647,2.98403 0.1541,4.00665c0.81161,0.96444 2.70564,-0.121 3.73181,0.61101c0.92699,0.66126 1.74864,1.44435 2.52492,2.27992c0.05508,-1.68811 0.10369,-3.3778 0.14134,-5.07c0.17683,-7.33675 -0.39169,-14.83875 -0.0898,-22.19683c-2.60499,0.66573 -5.28928,1.16616 -7.91129,1.79642zM471.26872,-6.18282c1.01535,-0.45648 2.05313,-0.84879 3.10737,-1.19398l0.12892,-1.7827c0.08225,-1.30639 1.16786,-2.3405 2.49499,-2.3405c1.38071,0 2.5,1.11929 2.5,2.5c0,0.06413 -0.00241,0.1277 -0.00716,0.19061l-0.00526,0.07891c1.21336,-0.26531 2.43541,-0.50576 3.65796,-0.74479c0.47414,-2.37071 0.94828,-4.74142 1.42242,-7.11212c0.16343,-0.81715 -0.18789,-1.96718 0.49029,-2.45145l0.48121,-2.40604c0.20987,-1.16847 1.23166,-2.05512 2.46053,-2.05512c1.38071,0 2.5,1.11929 2.5,2.5c0,0.06987 -0.00287,0.13907 -0.00849,0.20749l-0.34629,4.76081l-0.05816,-0.00423c-0.19947,1.74758 -0.46072,3.49622 -0.76231,5.2439c0.07118,-0.01787 0.14231,-0.03587 0.21339,-0.05402l0.5,1.5c1.63262,5.90904 2.0411,12.24086 2.77604,18.29924c0.7034,5.79843 1.51835,11.13996 1.14396,16.91373c-0.88708,13.68051 -3.29826,27.29645 -3.99511,40.9479c-0.00738,0.14465 -0.01517,0.28957 -0.02335,0.43475c2.54093,11.51629 1.06031,24.09008 1.06031,35.75043c0,15.39551 -0.53714,30.8712 -0.03109,46.25259c0.13715,4.16868 0.78483,8.3067 1.02683,12.47062c0.86876,14.94814 1.26036,29.92596 1.5202,44.9083c0.01746,-0.07295 0.0348,-0.14591 0.05203,-0.21889c0.00934,-0.03957 0.01734,-0.07992 0.02419,-0.12095c0.13361,-0.80009 -0.16991,-1.85739 0.4661,-2.3305l0.48121,-2.40604c0.20987,-1.16847 1.23166,-2.05512 2.46053,-2.05512c1.38071,0 2.5,1.11929 2.5,2.5l0,2.35785c0.11564,1.59412 0.81757,3.08504 0.97458,4.715c0.1598,1.65899 -0.08128,3.33234 -0.12191,4.99851c-0.30408,12.46738 -0.85266,24.95778 -0.85266,37.42864c0,11.04612 -0.96979,22.00475 -2.17707,32.95606c10.10634,1.70572 20.21156,3.41943 30.31083,5.16423c3.28106,0.56685 6.5765,1.0593 9.83874,1.726c1.18878,0.24295 3.06484,-0.13263 3.5,1c2.22355,5.78745 2.58237,12.12791 3.87356,18.19187l-1.5,0.5c-4.33613,1.15012 -10.68394,4.65119 -14.80628,6.49309c-9.93279,4.43806 -19.79812,9.15007 -29.81906,13.40656c-0.34274,0.60806 -0.97905,1.30842 -1.65839,1.98579c0.1262,4.64242 0.08502,9.30952 0.02818,13.97133c0.46316,0.07254 0.92619,0.14831 1.38908,0.22754c4.94884,0.84703 9.39874,1.84527 14.16718,3.27553c2.17134,0.65128 5.52025,-0.04425 6.5,2c0.25241,0.52666 0.48031,1.06145 0.68691,1.60331c0.38876,-0.00086 0.77753,-0.0013 1.16632,-0.0013h2c-0.73871,1.26005 -1.38933,2.59322 -2.01588,3.94637c0.9969,4.57668 1.11027,9.44665 2.01588,14.05363h-2c-8.0153,0 -16.01172,0.11697 -24,0.24728c0,0.91757 0,1.83515 0,2.75272c0,3 0,6 0,9c0,0.83333 0.80293,2.27696 0,2.5c-0.01446,0.00402 -0.02892,0.00802 -0.04338,0.01202c0.01686,0.32932 0.03136,0.65864 0.04338,0.98798v1.5c-2.97971,-0.41385 -5.99973,-0.63337 -9,-0.94808c-3.00027,0.31471 -6.02029,0.53423 -9,0.94808v-1.5c0.04362,-0.0548 0.02024,-0.43861 -0.04442,-1.01416c-0.11557,-0.04191 -0.19333,-0.11256 -0.24237,-0.20503c-0.66528,2.92268 -1.46381,5.81044 -2.77209,8.43792c-1.25665,2.52376 -2.45834,5.82956 -4.4676,7.83789c-1.87684,1.87596 -6.25642,1.41205 -8.01194,0.60855c-0.75774,-0.34682 -0.41363,-1.61452 -0.62045,-2.42179c-1.85612,-7.37502 -2.20356,-15.10431 -2.97061,-22.65327c-0.10047,-0.98878 -0.20144,-1.9775 -0.30268,-2.96619c-1.78533,0.15342 -3.5728,0.30344 -5.36154,0.45437c-0.03327,0.4274 -0.08095,0.85949 -0.15131,1.29869c-0.13183,0.82284 0.24882,1.95698 -0.411,2.46598c-4.18425,3.22791 -11.00446,-0.11153 -15.9509,-2.22279c-2.60322,0.2779 -5.20674,0.55298 -7.8093,0.83701c-2.98229,0.32547 -6.59592,2.85991 -8.94495,0.99388c-0.10071,-0.08 -0.20027,-0.16106 -0.2987,-0.24315c-1.5017,0.27131 -3.0197,0.46307 -4.52382,0.72258l-4,0.5c1.06435,-2.93844 1.71774,-6.10643 2.53614,-9.18225c-0.29665,-0.54628 -0.58744,-1.09792 -0.87591,-1.65167c-4.5817,-1.10232 -9.23246,-2.04441 -13.88492,-2.95398c-11.88025,-1.15694 -23.76756,-2.25278 -35.64619,-3.41167c-16.63781,-1.71115 -34.10351,0.24608 -50.77015,0.91372c-9.07121,0.36338 -18.23672,0.37311 -27.28592,1.0856c-8.73058,0.6874 -17.07659,1.76794 -25.85846,1.75954c-18.31314,-0.01752 -36.83677,0.76417 -55.12353,-0.18286c-12.7219,-0.65884 -25.40976,-1.60406 -38.09768,-2.62927c-4.69026,0.32867 -9.38036,0.66068 -14.07033,0.99724c-0.23534,2.77203 -0.53917,5.54961 -0.60077,8.30756l-8,-0.5c-3.97443,-0.25778 -7.95582,-0.48247 -11.9386,-0.48247c-11.20498,-0.05214 -22.43339,-0.79333 -33.65476,-1.7446c-4.96292,-0.13223 -9.92902,-0.22361 -14.89678,-0.28486c-1.92473,0.49015 -3.83278,0.93599 -5.22337,0.00821c-0.40807,0.00912 -0.81642,0.01624 -1.22508,0.02125h-8.5c0.02099,-0.04442 0.04189,-0.08891 0.0627,-0.13346c-16.37018,-0.0387 -32.74227,0.13346 -49.0627,0.13346c-1.98994,0 -3.99165,0.02316 -6,0.0531c0,0.64897 0,1.29793 0,1.9469c0,1 0.89285,2.54965 0,3c-5.50202,2.77516 -11.6921,3.89737 -17.53815,5.84605l-0.5,-1.5c-0.66564,-3.00763 -0.98582,-6.13646 -1.06885,-9.32403c-1.28625,-0.05867 -2.5685,-0.13599 -3.84537,-0.23634c-1.53187,-0.12038 -3.87016,0.40158 -4.5,-1c-0.15307,-0.34064 -0.29808,-0.68399 -0.43573,-1.02983l-0.34685,0.06937c0.05308,-0.1881 0.10459,-0.37686 0.1547,-0.56622c-2.03702,-5.42222 -2.37177,-11.41805 -3.68479,-17.08423l2.5,-0.5c1.47736,-0.28194 2.9618,-0.53666 4.4515,-0.7701c0.16751,-0.49435 0.36226,-1.01066 0.58924,-1.55992c0.62691,-1.51705 0.50995,-3.81138 2,-4.5c1.91163,-0.88346 3.90562,-1.53895 5.9407,-2.08071c0.22874,-1.79447 0.42619,-3.59449 0.59423,-5.39907c-0.33344,0.08406 -0.66476,0.17272 -0.9935,0.26698l0.20572,-0.75432c-0.46633,-0.24054 -0.92587,-0.49575 -1.37768,-0.76765c-1.59656,-0.96084 -0.79027,-3.64845 -1,-5.5c-0.66103,-5.83584 -0.62502,-11.92062 -1.10821,-17.79515c-0.04902,-0.59594 -0.09704,-1.19208 -0.14415,-1.7884c-0.91353,3.97237 -1.92438,7.67673 -2.60038,8.10151c-0.74091,0.46557 -1.5066,0.87589 -2.29243,1.24124c0,0.87694 0,1.75388 0,2.63082v2c-1.4305,-1.08619 -3.00327,-2.04372 -4.59514,-2.98396c-4.37338,1.2064 -9.05494,1.72522 -13.40486,2.98396c0,-1.33333 0,-4.66667 0,-6c0,-11.90125 -0.45048,-23.78899 1.14517,-35.60997c1.7716,-13.12452 5.39473,-25.99824 6.44808,-39.16506c0.49347,-6.16836 1.05847,-14.51778 2.03401,-20.46761c-1.50006,-2.04999 -2.99059,-4.40445 -4.62061,-7.41146c-0.63694,-1.17501 -0.10273,-2.6711 -0.1541,-4.00665c-0.16667,-4.33333 -0.49092,-8.66347 -0.5,-13c-0.00887,-4.23616 -0.30676,-8.51254 0.30048,-12.70496c0.30701,-2.11964 1.6019,-3.97272 2.40285,-5.95908c1.92286,-4.76868 3.84571,-9.53737 5.76857,-14.30605c0.54086,-1.34134 1.08173,-2.68268 1.62259,-4.02403c-0.156,-0.44608 -0.30539,-0.89437 -0.44704,-1.34513c-0.9022,-2.87101 0.17104,-7.45597 0.28777,-10.3741c0.33963,-8.49067 0.38118,-16.84257 2.0384,-25.19184c0.62276,-3.13654 1.23744,-6.27429 1.84592,-9.41293c-0.8141,0.52269 -1.67208,0.97886 -1.67208,0.97886v-1.5c0.20966,-2.51013 -0.99988,-5.02562 -1.0039,-7.61416c-0.01255,-8.07561 -0.51556,-16.14805 -0.79548,-24.22183c-0.78668,-0.06366 -1.57172,-0.11173 -2.35433,-0.13649l0.52751,-1.84628c0.55877,-1.95568 1.10773,-3.91245 1.64922,-5.87002c-0.00634,-0.84858 -0.00765,-1.6972 -0.00313,-2.54585c0.07314,-5.10249 1.13864,-10.17535 1.89522,-15.21918c1.20462,-8.03078 2.9804,-16.16252 6.10657,-23.71552c-0.0143,-0.10819 -0.02167,-0.21856 -0.02167,-0.33065v-5l0.03489,0c0.07769,-3.0959 0.28361,-6.20394 0.6186,-9.29397c-0.15661,-0.97105 0.34651,-2.17879 0.34651,-3.20603c0,-0.42408 0.00462,-0.85103 0.01426,-1.28009c-2.1721,-0.34258 -3.98863,-0.66341 -4.9758,-0.91222c-4.40208,-1.10951 -8.41611,-3.41138 -12.56338,-5.25785c-1.02138,-0.45474 -2.85248,-0.39174 -3,-1.5c-0.81484,-6.12146 0.2231,-12.34889 0.33465,-18.52334l6.5,-0.5c7.58289,-0.55526 15.22244,-0.83506 22.87309,-0.99266c0.68976,-3.68285 1.24057,-7.39796 1.57013,-11.18483c-0.01607,-0.18768 -0.00819,-0.36506 0.04415,-0.52411c0.03598,-0.4418 0.06892,-0.8846 0.09867,-1.32847l0.1084,-1.64194c0.07535,-1.313 1.16396,-2.3545 2.49584,-2.3545c1.38071,0 2.5,1.11929 2.5,2.5v2.5c0.31157,0.32218 0.30362,0.78042 0.22131,1.26453c0.87536,0.38899 1.48579,1.26607 1.48579,2.28572c0,0.1348 -0.01067,0.26711 -0.03121,0.39613l-0.36917,2.58418c0.22758,0.42466 0.02787,0.94768 -0.18336,1.47335c-0.08046,0.82987 -0.12337,1.66356 -0.12337,2.49609c-0.01612,0.47168 -0.04855,0.94179 -0.09511,1.41046c0.97544,-0.01182 1.95081,-0.02249 2.92602,-0.03233c0.13765,-0.5035 0.28123,-1.00496 0.43156,-1.50398c0.55426,-2.85896 1.33398,-5.68704 2.9122,-7.99395c1.01696,-1.48651 3.55886,-1.10006 5.28605,-0.52343c0.52574,-8.74023 1.0047,-17.47957 1.37055,-26.23962c-0.10488,-0.49553 -0.18137,-0.97914 0.05473,-1.33159c0.00316,-0.07809 0.0063,-0.15619 0.00944,-0.23428l0.0999,-2.48584c0.04648,-1.33985 1.1473,-2.41176 2.49847,-2.41176c1.38037,0 2.49944,1.11873 2.5,2.49896c0,0.00004 0,0.00009 0,0.00013l0.00104,2.49987c0.58343,0.59502 0.00069,1.66667 0.00104,2.5c0,0 0,0 0,0c0.00019,0.46556 0.00193,0.93134 0.00454,1.39727c0.16142,-0.03274 0.32848,-0.04992 0.49956,-0.04992c1.38071,0 2.5,1.11929 2.5,2.5l0,2.69372c0.26758,0.39754 0.12944,0.94895 -0.00992,1.50082c-0.04627,5.18515 -0.24981,10.3418 -0.51321,15.4984c0.94087,-0.10351 1.88617,-0.16113 2.83732,-0.1582c1.3437,0.00414 1.44624,2.2757 2,3.5c1.17847,2.60546 2.31504,5.24148 3.18581,7.96525c0.00879,0.02749 0.01736,0.05517 0.02571,0.08304c1.86633,-0.10054 3.68696,-0.31801 5.79147,-0.81432c2.00651,-0.4732 4.19471,-2.49545 6,-1.5c4.48812,2.47477 8.01208,6.32782 11.6882,9.96335c7.45552,0.89743 14.91033,1.79618 22.3552,2.76793c16.87981,0 33.75961,0 50.63942,0c8.6451,0 16.91274,-1.40996 25.49923,-2c8.73568,-0.6003 17.74126,-1 26.50077,-1c16.72773,0 33.50313,1.65265 50.13651,3.51393l1.75715,-0.43929l0.01714,0.06858c6.35368,-1.22031 13.10573,-1.29018 19.51079,-1.87185c9.60686,-0.87244 19.18503,-1.98158 28.81875,-2.21344c0.16137,-0.33785 0.33171,-0.65516 0.49942,-0.93954c0.35996,-0.61037 1.35008,-0.43096 2.02513,-0.64645c5.87835,-1.78809 12.22352,-1.74685 18.46148,-1.59651c0.51089,-0.79206 1.2571,-1.84479 1.84849,-2.25155c-0.37014,-0.71358 -0.70794,-1.46876 -0.70794,-1.46876c2.99823,1.10846 7.23195,2.67369 10.23018,3.78215c8.14869,-0.19659 16.61201,-0.72245 24.53194,0.41452c3.22721,0.46329 6.48361,0.8739 9.7512,1.27434c7.57155,-0.48377 15.11513,-0.75449 22.76332,-0.37208c3.32917,0.16646 6.65835,0.33292 9.98752,0.49938c0.83229,0.04161 1.78807,-0.31337 2.49688,0.12484c1.58819,0.98187 3.2756,2.13935 4.18618,3.7608c0.6938,-0.08851 1.43044,-0.26618 1.85769,0.20016l2.4751,0.16501c1.1833,0.06858 2.1458,0.96016 2.32362,2.11085c8.25254,0.19672 16.40352,0.6578 24.70802,1.47575l0.00072,-0.00684l4.05373,0.42671c0.05938,0.00549 0.11816,0.01305 0.17627,0.02262c1.38159,-0.02228 2.7644,-0.03486 4.14883,-0.03515c5.91973,-0.00125 11.56676,-0.53742 17.44189,-0.99819c6.03188,-0.47306 12.25884,-0.05687 18.33603,-0.00513c0.20735,-1.32294 -0.22344,-3.15792 0.93269,-3.67769zM494.3224,254.7835c0.0259,1.03589 0.05003,2.0718 0.07264,3.10772c0.06816,-2.12759 0.10496,-4.2578 0.10496,-6.39122c0,-10.01419 0.4271,-20.04147 0.67128,-30.05278c0.01805,-0.73991 0.05201,-1.49022 0.09325,-2.24704c-0.50035,1.87397 -0.98952,3.75552 -1.4747,5.64099c0.13981,9.98577 0.28324,19.96903 0.53258,29.94234zM-5.18696,84.25829c-1.36771,-0.46099 -2.72626,-0.96088 -4.08374,-1.4653c0.15716,4.46662 0.36857,8.93323 0.51512,13.39138c0.07515,2.2859 -0.01279,4.67169 0.00033,7.03106c1.20057,-6.3177 2.38485,-12.63758 3.56829,-18.95714zM-5.02006,346.29906c0.00847,0.00208 0.01694,0.00415 0.02541,0.00622c-0.00006,-0.00368 -0.00011,-0.00736 -0.00017,-0.01104c-0.00834,-0.00362 -0.01665,-0.00729 -0.02494,-0.01099c-0.0001,0.00524 -0.0002,0.01051 -0.0003,0.01582zM511.63282,305.16029c-5.36769,-0.91282 -10.73506,-1.82761 -16.1028,-2.74022c0.13874,0.54253 0.28165,1.06986 0.43489,1.57248c0.74184,2.4333 1.6087,4.91662 2.38092,7.42922c4.44455,-2.03388 8.86166,-4.15741 13.28698,-6.26149zM485.52315,46.06457c-0.00327,-0.00616 -0.00476,-0.00625 -0.00421,0.00056c0.0014,-0.00019 0.0028,-0.00037 0.00421,-0.00056zM412.42588,5.50263c-0.15542,0.01666 -0.31081,0.03326 -0.46617,0.0498c-0.00316,0.00399 -0.00634,0.00797 -0.00953,0.01193c2.17848,0.00189 4.36434,-0.01885 6.55255,-0.06156c-2.02562,0.00003 -4.05124,-0.00001 -6.07685,-0.00017zM464.8449,377.58466c0.71145,7.00169 0.96468,14.25817 2.63725,21.11625c0.53222,-0.22461 1.35587,-0.21242 1.76482,-0.62118c0.2626,-0.26247 -0.12649,-0.76115 -0.01033,-1.1138c0.2607,-0.7915 0.74288,-1.49195 1.11432,-2.23792c1.07659,-2.16215 2.08879,-4.01522 2.61095,-6.37097c1.12711,-5.08504 2.32167,-10.15734 3.53837,-15.22488c-3.98354,0.49887 -7.96156,1.071 -11.95523,1.51407c0.10029,0.97944 0.20032,1.9589 0.29985,2.93842z" fill="#000000" stroke-width="0.5"/><text transform="translate(49,107.75) scale(1.64843,1.64843)" font-size="40" xml:space="preserve" data-paper-data="{&quot;origPos&quot;:null}" fill="#ffffff" fill-rule="nonzero" stroke="none" stroke-width="1" stroke-linecap="butt" stroke-linejoin="miter" stroke-miterlimit="10" stroke-dasharray="" stroke-dashoffset="0" font-family="Pixel" font-weight="normal" text-anchor="start" style="mix-blend-mode: normal"><tspan x="0" dy="0">Game Over!</tspan></text></g></g></svg>